<?xml version="1.0" encoding="UTF-8" standalone="no"?>
<!-- Created with Inkscape (http://www.inkscape.org/) -->

<svg
   width="628.80298mm"
   height="176.2628mm"
   viewBox="0 0 628.80297 176.2628"
   version="1.1"
   id="svg5"
   xml:space="preserve"
   inkscape:version="1.2 (1:1.2.1+202207142221+cd75a1ee6d)"
   sodipodi:docname="background.svg"
   xmlns:inkscape="http://www.inkscape.org/namespaces/inkscape"
   xmlns:sodipodi="http://sodipodi.sourceforge.net/DTD/sodipodi-0.dtd"
   xmlns="http://www.w3.org/2000/svg"
   xmlns:svg="http://www.w3.org/2000/svg"><sodipodi:namedview
     id="namedview7"
     pagecolor="#ffffff"
     bordercolor="#666666"
     borderopacity="1.0"
     inkscape:showpageshadow="2"
     inkscape:pageopacity="0.0"
     inkscape:pagecheckerboard="0"
     inkscape:deskcolor="#d1d1d1"
     inkscape:document-units="mm"
     showgrid="false"
     inkscape:zoom="0.36035003"
     inkscape:cx="1341.751"
     inkscape:cy="69.376989"
     inkscape:window-width="1860"
     inkscape:window-height="979"
     inkscape:window-x="0"
     inkscape:window-y="0"
     inkscape:window-maximized="1"
     inkscape:current-layer="layer1" /><defs
     id="defs2" /><g
     inkscape:label="Ebene 1"
     inkscape:groupmode="layer"
     id="layer1"
     transform="translate(189.99171,-0.72485182)"><rect
       style="fill:#949494;fill-opacity:0;fill-rule:evenodd;stroke-width:0.264583"
       id="rect4793"
       width="150.85597"
       height="142.47598"
       x="26.748217"
       y="34.511669" /><g
       id="g13761"
       transform="translate(71.229878,-25.156185)"><path
         style="fill:#656565;stroke-width:0.352778"
         d="m -236.62718,176.8519 c -2.50904,-1.09349 -2.60888,-2.59179 -0.57515,-8.63122 1.92961,-5.73024 1.90874,-5.69653 3.52751,-5.69653 0.73695,0 1.42479,0.0849 1.52854,0.18863 0.10375,0.10375 -0.50365,2.20719 -1.34976,4.67431 -0.84612,2.46712 -1.53955,4.67277 -1.54095,4.90144 -0.005,0.81802 1.12485,1.52451 2.43811,1.52451 2.1405,0 3.19127,-1.29204 4.44697,-5.46806 0.35006,-1.16416 0.74728,-2.27541 0.88272,-2.46944 0.13544,-0.19403 0.36028,-0.82814 0.49964,-1.40914 0.13937,-0.581 0.41882,-1.25569 0.62101,-1.49931 0.46399,-0.55907 3.10344,-0.59128 3.10344,-0.0379 0,0.51584 -2.35276,7.48551 -3.07863,9.11994 -0.98546,2.21895 -1.84101,3.11031 -4.04012,4.20922 -2.38118,1.18989 -4.62267,1.39572 -6.46333,0.59353 z m 77.73852,-0.18917 c -0.80449,-0.65501 -0.83283,-0.84893 -0.83283,-5.69994 0,-3.40549 -0.12779,-5.06551 -0.39703,-5.1575 -0.21836,-0.0746 -0.47903,0.22818 -0.57925,0.67286 -0.26047,1.15565 -3.21679,9.54199 -3.54946,10.06892 -0.15628,0.24755 -0.98363,0.44097 -1.88622,0.44097 -1.3657,0 -1.58031,-0.093 -1.42509,-0.61736 0.51954,-1.75514 3.19987,-9.52035 3.46876,-10.04938 0.17124,-0.33692 0.31135,-0.82316 0.31135,-1.08053 0,-0.68913 1.7701,-2.21109 3.07931,-2.64766 1.62079,-0.54046 3.55907,-0.14242 4.22024,0.86665 0.44344,0.67678 0.52242,1.71573 0.41623,5.47537 -0.0966,3.42084 -0.0186,4.67793 0.2969,4.78407 0.23876,0.0803 0.5332,-0.29601 0.66601,-0.85124 0.13092,-0.54736 0.3536,-1.15395 0.49483,-1.34798 0.14124,-0.19403 0.34193,-0.74965 0.44598,-1.23472 0.46032,-2.14601 2.45428,-7.27219 2.98458,-7.67292 0.69425,-0.52463 2.43482,-0.58482 2.73775,-0.0947 0.2339,0.37846 -3.37177,11.48195 -4.11988,12.68693 -0.5968,0.96128 -3.02514,2.13622 -4.41508,2.13622 -0.59635,0 -1.45904,-0.30514 -1.9171,-0.67809 z m 112.718681,0.19319 c -1.345466,-0.61248 -2.252966,-1.84039 -2.241702,-3.03318 0.0046,-0.49041 0.784095,-3.19352 1.732143,-6.00692 l 1.723721,-5.11528 1.619247,-0.10753 c 1.019548,-0.0677 1.619246,0.0381 1.619246,0.28566 0,0.21624 -0.635,2.27921 -1.411111,4.58437 -0.776111,2.30515 -1.411111,4.51259 -1.411111,4.9054 0,0.86289 0.98281,1.4446 2.440686,1.4446 1.830786,0 2.994621,-1.4812 4.435065,-5.64445 2.094357,-6.05323 1.849801,-5.64444 3.376782,-5.64444 0.741123,0 1.432405,0.13739 1.536189,0.30531 0.103783,0.16793 -0.558994,2.48462 -1.472837,5.14822 -1.82674,5.32443 -2.978224,7.08104 -5.477556,8.3561 -1.834543,0.93592 -4.998744,1.19132 -6.468762,0.52214 z m 23.781106,0.0259 c -1.07737,-0.85763 -1.262906,-2.03297 -0.929937,-5.89096 0.559774,-6.4859 -0.234241,-6.86959 -2.190175,-1.05833 -0.620398,1.84326 -1.436856,4.18482 -1.81435,5.20347 l -0.68635,1.85208 h -1.562153 c -1.064433,0 -1.562153,-0.14945 -1.562153,-0.46907 0,-0.53907 2.93128,-9.2777 3.77933,-11.26681 1.104766,-2.59124 5.161548,-3.8268 6.882588,-2.0962 0.770477,0.77476 0.799229,1.01076 0.702441,5.76609 -0.127667,6.27247 0.254772,6.29588 2.325948,0.1424 0.835709,-2.4829 1.709455,-4.69239 1.941661,-4.90997 2.509506,-2.35149 6.0248162,-2.4427 6.9617974,-0.18063 0.4342554,1.04839 0.3157997,6.36308 -0.2489164,11.16792 l -0.2210506,1.88079 -1.5891364,-0.10546 -1.589137,-0.10545 0.07497,-5.59323 c 0.08714,-6.5017 -0.26416,-7.00381 -1.746052,-2.49556 -1.797982,5.46985 -2.361043,6.64986 -3.615687,7.57747 -1.307899,0.96697 -4.025374,1.28854 -4.913633,0.58145 z m 44.618408,-0.23458 c -1.116683,-1.04035 -1.228683,-1.79212 -0.817016,-5.484 0.6532,-5.85792 -0.324157,-6.91372 -1.874036,-2.02446 -0.538177,1.69774 -1.074801,3.32493 -1.192499,3.61597 -0.117693,0.29104 -0.468993,1.32291 -0.780665,2.29305 l -0.566678,1.76389 -1.708146,0.10929 -1.708146,0.10929 0.251636,-1.34132 c 0.138398,-0.73773 0.350696,-1.50129 0.471777,-1.69679 0.12108,-0.19551 0.881232,-2.33984 1.689223,-4.76519 1.625766,-4.88005 2.485305,-6.09852 4.72808,-6.70244 1.657921,-0.44643 2.894495,-0.19167 3.767673,0.77622 0.569666,0.63145 0.631374,1.27809 0.538928,5.64751 -0.08291,3.91843 -0.01027,4.90333 0.352778,4.78341 0.251446,-0.083 1.265019,-2.57384 2.25238,-5.53508 0.987362,-2.96123 2.019237,-5.52588 2.293056,-5.69922 0.273819,-0.17333 1.013788,-0.31758 1.644378,-0.32055 0.957005,-0.005 1.145628,0.1258 1.141077,0.78834 -0.0055,0.79431 -3.093152,10.03373 -3.949756,11.819 -1.024209,2.13458 -5.019763,3.27385 -6.534044,1.86308 z m 96.058465,-0.0588 -0.95652,-0.75239 0.11518,-4.86255 c 0.10393,-4.38708 -0.0537,-5.75224 -0.60092,-5.20502 -0.1028,0.10281 -1.02038,2.62958 -2.03909,5.61504 l -1.85216,5.42813 -1.66507,0.10753 c -1.10931,0.0716 -1.66508,-0.0321 -1.66508,-0.31084 0,-0.2301 0.64823,-2.26286 1.44053,-4.51725 0.79231,-2.25438 1.68646,-4.84339 1.98702,-5.75335 0.97769,-2.95996 3.74968,-4.62019 6.32559,-3.78855 1.7362,0.56054 2.03133,1.72989 1.74361,6.90851 -0.19809,3.56493 -0.15639,4.39699 0.21406,4.27352 0.43558,-0.14517 1.04426,-1.68435 3.2384,-8.18887 0.51999,-1.54145 1.00725,-2.86449 1.08285,-2.94008 0.34247,-0.34245 2.94954,-0.47421 3.14441,-0.15891 0.25792,0.41731 -3.37509,11.42026 -4.17276,12.63767 -0.6925,1.05685 -3.01272,2.25979 -4.35875,2.25979 -0.56363,0 -1.45524,-0.33857 -1.9813,-0.75238 z m 109.58343,0.0331 c -0.72553,-0.6759 -0.77209,-1.02708 -0.77209,-5.82084 0,-5.00172 -0.25481,-6.06932 -0.98602,-4.13139 -0.47939,1.27058 -2.15889,5.99427 -2.57129,7.23194 -1.04196,3.12717 -1.00721,3.08681 -2.65909,3.08681 -1.0486,0 -1.54471,-0.15039 -1.54471,-0.46825 0,-0.72618 3.52541,-10.88254 4.13737,-11.91935 0.77149,-1.30715 2.33003,-2.12128 4.19601,-2.19191 1.36127,-0.0515 1.73475,0.0897 2.45678,0.92904 0.70288,0.81704 0.85105,1.37124 0.84882,3.175 0,1.20185 -0.1676,3.20174 -0.36918,4.44419 -0.36548,2.25243 -0.17184,3.05755 0.618,2.56942 0.22913,-0.14162 1.1509,-2.46658 2.0484,-5.16659 0.8975,-2.7 1.78587,-5.1969 1.97411,-5.54866 0.45477,-0.84972 2.71311,-0.88957 3.03392,-0.0535 0.20814,0.5424 -2.47424,9.04239 -3.68748,11.68504 -1.10338,2.40333 -5.09446,3.69683 -6.72355,2.17909 z m -488.86624,-0.60363 c 0.12473,-0.53358 0.39933,-1.4067 0.61021,-1.94028 l 0.38343,-0.97014 4.63151,-0.005 c 5.43863,-0.006 6.00067,-0.11733 6.53921,-1.29929 0.75,-1.64609 0.12932,-1.87091 -5.16516,-1.87091 h -4.75857 l 0.23753,-1.26614 c 0.57249,-3.0516 0.40016,-2.96719 6.05749,-2.96719 4.7355,0 5.08902,-0.0473 5.76421,-0.77208 0.85969,-0.92278 0.93121,-1.89334 0.16128,-2.18879 -0.30691,-0.11777 -2.62863,-0.21413 -5.15938,-0.21413 h -4.60135 l 0.19481,-0.97014 c 0.10715,-0.53358 0.36119,-1.4067 0.56454,-1.94028 l 0.36971,-0.97014 h 6.29724 c 6.08173,0 6.3219,0.0272 7.01799,0.79375 1.5435,1.69983 1.30288,4.65504 -0.56863,6.98389 -0.83202,1.03533 -1.08929,1.71027 -1.09522,2.8732 -0.004,0.836 -0.29695,2.155 -0.65041,2.93111 -0.70103,1.53924 -3.09087,3.89028 -4.49853,4.42546 -0.48755,0.18537 -3.51271,0.33704 -6.72257,0.33704 h -5.83612 z m 39.00804,0.74515 c 0,-0.22154 2.58314,-7.81166 4.06551,-11.94585 0.73092,-2.03843 0.80844,-2.12081 2.09739,-2.22892 0.73613,-0.0617 1.47842,0.0277 1.64953,0.19885 0.17965,0.17965 -0.69214,3.24602 -2.06291,7.25601 l -2.37403,6.9449 h -1.68774 c -0.92826,0 -1.68775,-0.10125 -1.68775,-0.22499 z m 12.35418,-0.22814 c -2.19027,-1.10822 -2.2546,-3.48124 -0.25548,-9.42465 l 1.48325,-4.40972 1.67569,-0.10753 c 0.92164,-0.0591 1.6757,0.0337 1.6757,0.20632 0,0.48752 -1.39158,4.74408 -1.84814,5.65307 -0.6169,1.22823 -0.56014,4.60691 0.0842,5.01484 0.29104,0.18425 1.91823,0.33743 3.61597,0.3404 3.07709,0.005 3.08681,0.008 3.08681,0.91053 0,2.09314 -0.36672,2.27035 -4.68672,2.26467 -2.46335,-0.003 -4.28653,-0.17227 -4.83133,-0.44793 z m 15.16249,-0.30016 c 0,-0.41431 0.58854,-2.43837 1.30787,-4.49792 0.71934,-2.05954 1.71565,-4.93525 2.21403,-6.39046 l 0.90616,-2.64583 4.28036,-0.0988 c 4.10337,-0.0947 4.3218,-0.0631 5.2825,0.76489 0.93828,0.80865 1.00016,1.02848 0.97108,3.45018 -0.0362,3.01441 -0.8425,5.02747 -2.99155,7.46893 -2.06788,2.34923 -3.09725,2.7023 -7.87863,2.7023 -3.94306,0 -4.09182,-0.0274 -4.09182,-0.75329 z m 8.47879,-2.78098 c 1.69892,-0.90923 3.31051,-5.45487 2.48248,-7.00205 -0.32712,-0.61124 -0.72778,-0.75257 -2.13342,-0.75257 -1.00014,0 -1.84873,0.18613 -2.0104,0.44097 -0.50243,0.79199 -2.51542,7.13675 -2.35043,7.40833 0.23796,0.39171 3.23512,0.32097 4.01177,-0.0947 z m 9.50876,3.0933 c -0.004,-0.42634 1.55315,-5.35489 2.14555,-6.79098 0.16008,-0.38805 0.73015,-2.05493 1.26682,-3.70416 0.53667,-1.64924 1.1403,-3.11525 1.3414,-3.2578 0.65707,-0.46577 3.01146,-0.30869 3.01146,0.20092 0,0.53409 -0.89734,3.37393 -2.69373,8.52493 -2.06749,5.92838 -1.77094,5.46806 -3.52268,5.46806 -0.99838,0 -1.54616,-0.15596 -1.54882,-0.44097 z m 31.88391,-0.39157 c -0.87433,-0.75207 -0.96538,-1.05043 -0.94189,-3.08681 0.0316,-2.74247 1.16942,-5.53189 3.15444,-7.73338 2.08733,-2.31495 3.47773,-2.79428 8.13197,-2.80341 2.17137,-0.004 4.03563,0.13413 4.1428,0.30755 0.10718,0.17342 -0.0443,0.88779 -0.33669,1.5875 l -0.53156,1.2722 h -3.65186 c -3.10396,0 -3.78493,0.10467 -4.53883,0.69769 -1.36686,1.07517 -2.43776,3.66731 -2.31291,5.59841 l 0.10613,1.6414 2.10681,0.10814 c 1.68182,0.0863 2.19776,-0.0162 2.55764,-0.5084 0.75604,-1.03394 0.54202,-1.78636 -0.57145,-2.00906 -1.01665,-0.20333 -1.01975,-0.21182 -0.56368,-1.5434 0.44398,-1.29628 0.51714,-1.34239 2.29556,-1.44692 2.33198,-0.13706 3.17095,0.51731 3.17095,2.47322 0,2.20899 -1.56541,4.72437 -3.59845,5.78216 -0.62269,0.32398 -2.11263,0.49565 -4.30186,0.49565 -3.01091,0 -3.44701,-0.0841 -4.31712,-0.83254 z m 141.9465718,0.39157 c -1.0730724,-0.81486 -1.3367702,-2.20058 -0.7477337,-3.92931 0.2967073,-0.87078 0.7660182,-1.77126 1.0429134,-2.00107 0.2793013,-0.23179 0.5034527,-1.03312 0.5034527,-1.79979 0,-1.82105 1.09537854,-3.8991 2.70189323,-5.12579 1.25028677,-0.95468 1.46924177,-0.99479 6.04291037,-1.10689 2.6100899,-0.064 4.8889182,0.027 5.0640582,0.20212 0.189403,0.18941 0.09881,0.84409 -0.223556,1.61563 l -0.541997,1.29718 H 7.1628621 c -3.2431814,0 -4.1383444,0.11133 -4.5989981,0.57199 -0.3145931,0.31459 -0.5224674,0.83053 -0.4619483,1.14652 0.092502,0.48298 0.7418599,0.59044 4.0745656,0.67429 4.3406837,0.10922 4.4453807,0.17708 3.6204807,2.34673 -0.3425402,0.90095 -0.3623169,0.90491 -4.5155555,0.90491 -4.42612635,0 -5.01817564,0.19562 -5.01817564,1.65806 0,0.79763 0.0659836,0.81139 3.89162564,0.81139 4.3407576,0 4.6870302,0.19461 3.7095606,2.08482 l -0.5637495,1.09018 H 2.6146535 c -3.20391365,0 -4.8696809,-0.13947 -5.2667217,-0.44097 z m 39.6041872,0.0613 c 0,-0.20884 0.714375,-2.50713 1.5875,-5.10731 0.873125,-2.60018 1.5875,-4.95973 1.5875,-5.24345 0,-0.34142 -0.44729,-0.55285 -1.322917,-0.62532 -1.098976,-0.091 -1.30327,-0.22893 -1.206852,-0.81505 0.06384,-0.38805 0.345306,-1.06274 0.625492,-1.4993 0.485137,-0.7559 0.726775,-0.79375 5.066591,-0.79375 2.506437,0 4.628688,0.11906 4.716113,0.26458 0.08743,0.14552 -0.02226,0.82021 -0.243762,1.49931 -0.375532,1.15137 -0.513764,1.2419 -2.047607,1.34098 -1.149135,0.0742 -1.717484,0.28689 -1.885763,0.70556 -0.132486,0.32961 -0.870116,2.42492 -1.639182,4.65624 -2.245614,6.51529 -1.926646,5.99722 -3.692412,5.99722 -0.86765,0 -1.544701,-0.16643 -1.544701,-0.37971 z m 9.771475,0.13315 c -0.254127,-0.42191 7.894034,-12.44187 8.987677,-13.25839 0.521466,-0.38933 1.726639,-0.7799 2.693063,-0.87276 1.448689,-0.1392 1.877477,-0.0398 2.495723,0.57842 0.688344,0.68835 0.746506,1.12747 0.746506,5.63616 0,2.68931 -0.10202,5.63396 -0.226709,6.54366 l -0.226706,1.65402 -1.625377,-0.10547 -1.625374,-0.10547 -0.176389,-5.11528 c -0.106673,-3.09348 -0.315825,-5.10145 -0.529167,-5.08028 -0.194028,0.0192 -1.860903,2.32111 -3.704167,5.11527 l -3.351388,5.08029 -1.643737,0.10622 c -0.904053,0.0584 -1.720335,-0.021 -1.813955,-0.17639 z m 21.728476,-0.54719 c 0.101741,-0.43656 0.901806,-2.85274 1.777894,-5.36927 0.876088,-2.51653 1.516345,-4.69935 1.422823,-4.85069 -0.09356,-0.15135 -0.689892,-0.27518 -1.32521,-0.27518 -0.635282,0 -1.243647,-0.0886 -1.351914,-0.19683 -0.252836,-0.25282 0.497804,-2.36775 0.961178,-2.70819 0.526027,-0.38645 9.273222,-0.32462 9.515404,0.0673 0.114653,0.18548 -0.02646,0.89986 -0.313972,1.5875 -0.472546,1.131 -0.654544,1.25025 -1.908281,1.25025 -0.762247,0 -1.550035,0.19844 -1.750624,0.44097 -0.20059,0.24254 -0.875101,1.9491 -1.498883,3.79236 -0.623781,1.84327 -1.443002,4.18483 -1.820474,5.20347 l -0.686364,1.85209 h -1.60327 c -1.482301,0 -1.589334,-0.0599 -1.418307,-0.79375 z m 11.891715,0.41405 c 0,-0.2301 0.649358,-2.26287 1.443002,-4.51725 0.793609,-2.25439 1.767946,-5.13076 2.165139,-6.39194 0.924313,-2.93477 1.135027,-3.175 2.785039,-3.175 1.19193,0 1.364227,0.10212 1.339144,0.79375 -0.01588,0.43656 -1.008697,3.65125 -2.206307,7.14375 l -2.177521,6.35 -1.674248,0.10752 c -1.1164,0.0717 -1.674248,-0.0319 -1.674248,-0.31083 z m 11.04399,-0.47208 c -0.917433,-0.78947 -0.98686,-1.03095 -0.949078,-3.30115 0.03351,-2.02298 0.233786,-2.81125 1.149703,-4.52809 1.360347,-2.54991 2.827902,-4.15776 4.637687,-5.08105 1.747062,-0.89128 7.550223,-1.00766 9.144173,-0.18337 1.0655,0.55098 1.78464,2.08043 1.78464,3.79555 0,1.54573 -1.69383,5.53628 -3.07644,7.24786 -1.94444,2.40712 -3.27907,2.90203 -7.82595,2.90203 -3.588173,0 -3.948183,-0.063 -4.864735,-0.85178 z m 9.504825,-3.29336 c 1.01638,-1.06567 2.38174,-3.97758 2.38174,-5.07953 0,-1.70479 -0.57422,-2.06422 -3.297802,-2.06422 -2.345584,0 -2.645833,0.0838 -3.475072,0.97014 -0.499251,0.53357 -1.16392,1.47819 -1.477116,2.09915 -0.563422,1.11702 -0.788458,4.35521 -0.334257,4.80941 0.129328,0.12935 1.369624,0.23519 2.756217,0.23519 2.290728,0 2.60555,-0.0886 3.44629,-0.97014 z m 50.71505,3.89739 c 0,-0.15478 1.02228,-3.29109 2.26839,-6.96957 1.24612,-3.67849 2.188,-6.8138 2.0931,-6.96737 -0.0949,-0.15356 -0.95694,-0.2792 -1.91561,-0.2792 -1.91954,0 -1.9201,-7.1e-4 -1.29392,-1.76389 0.78108,-2.19931 0.50168,-2.11667 7.15638,-2.11667 3.38405,0 6.15039,0.11907 6.14743,0.26459 -0.004,0.14552 -0.21816,0.97895 -0.47826,1.85208 l -0.4729,1.5875 -1.90299,0.1084 c -1.04665,0.0596 -2.06142,0.2657 -2.25509,0.45794 -0.19364,0.19224 -1.39206,3.39784 -2.66316,7.12354 l -2.31105,6.77401 -2.18754,0.10503 c -1.20314,0.0578 -2.1863,-0.0216 -2.18478,-0.17639 z m 15.62975,-0.0294 c -0.69596,-0.44252 -1.21243,-2.24809 -0.96513,-3.37404 0.12795,-0.58255 0.61076,-1.73645 1.0729,-2.56424 0.46217,-0.82778 0.84028,-2.00852 0.84028,-2.62386 0,-1.60178 1.24471,-3.59514 2.92534,-4.68489 1.38409,-0.89746 1.65915,-0.9397 6.12031,-0.9397 2.56906,0 4.75872,0.14189 4.86589,0.3153 0.10721,0.17342 -0.0443,0.88779 -0.33669,1.5875 l -0.53153,1.2722 h -4.15805 c -4.41198,0 -5.00471,0.19637 -5.00471,1.65806 0,0.79963 0.0588,0.81139 4.05694,0.81139 2.23132,0 4.05606,0.11906 4.05497,0.26458 0,0.14552 -0.16729,0.8599 -0.36936,1.5875 l -0.36738,1.32292 h -4.20864 c -4.07981,0 -4.22596,0.0265 -4.77629,0.86643 -0.31225,0.47653 -0.46528,1.03216 -0.34012,1.23472 0.13572,0.21956 1.78636,0.36829 4.08736,0.36829 3.59357,0 3.85974,0.0475 3.85974,0.68896 0,0.37892 -0.18422,1.0933 -0.4094,1.5875 l -0.4094,0.89855 -4.79407,-0.005 c -2.63673,-0.003 -4.98257,-0.12526 -5.21296,-0.27176 z m 19.084,-0.0659 c -2.62615,-1.06198 -1.67315,-7.67088 1.65224,-11.45832 1.89269,-2.15565 3.37044,-2.64578 8.00414,-2.6548 4.43688,-0.009 4.77943,0.17871 3.79776,2.07708 l -0.56378,1.09017 -3.6069,3.5e-4 c -3.27068,3.6e-4 -3.69623,0.0772 -4.56491,0.82436 -1.81836,1.56392 -3.03432,5.80151 -1.97006,6.86577 0.26879,0.26877 1.62525,0.42333 3.71525,0.42333 3.69397,0 4.06079,0.24591 3.10984,2.08483 l -0.56377,1.09017 -4.13608,-0.0224 c -2.27485,-0.0123 -4.468,-0.15659 -4.87373,-0.32066 z m 14.95496,0.15523 c -0.10326,-0.10328 0.86748,-3.31796 2.15723,-7.14375 l 2.34502,-6.95596 1.35823,-0.11226 c 1.94688,-0.16091 2.12235,0.21393 1.27607,2.726 -0.40474,1.20148 -0.64276,2.33522 -0.52892,2.51942 0.11384,0.18419 1.23208,0.3349 2.48493,0.3349 2.54596,0 2.40567,0.14455 3.85223,-3.96875 0.56857,-1.61667 0.63839,-1.6757 1.98233,-1.6757 2.1977,0 2.257,-0.47367 -1.21504,9.70139 l -1.56492,4.58611 -1.62874,0.10753 c -1.92105,0.12681 -1.97051,-0.0348 -0.92322,-3.01453 0.38806,-1.10409 0.70556,-2.132 0.70556,-2.28424 0,-0.15224 -1.17768,-0.27681 -2.61709,-0.27681 h -2.61704 l -0.7813,2.38125 c -0.42968,1.30969 -0.93832,2.57969 -1.1303,2.82223 -0.34071,0.4305 -2.78183,0.62639 -3.15503,0.25318 z m 40.61294,-0.72349 c -1.88129,-2.00459 -0.5413,-7.87376 2.52024,-11.03839 1.85442,-1.91689 3.54881,-2.49758 7.31358,-2.50647 4.15625,-0.01 5.09394,0.41951 5.70823,2.6135 0.34794,1.24279 0.3563,1.95805 0.0376,3.22368 -0.95585,3.79611 -3.26249,7.03075 -5.75684,8.07295 -0.90723,0.37907 -2.47794,0.54601 -5.13718,0.54601 -3.66272,0 -3.86782,-0.0399 -4.68563,-0.91128 z m 9.84585,-3.48556 c 1.4544,-1.65648 2.44235,-4.79061 1.89131,-5.99999 -0.381,-0.8362 -0.56846,-0.89206 -2.99385,-0.89206 -2.36738,0 -2.66456,0.0825 -3.49504,0.97014 -1.77433,1.89644 -2.67758,4.60216 -2.06985,6.20052 0.34424,0.90551 0.4633,0.94323 2.97663,0.94323 2.54508,0 2.64788,-0.034 3.6908,-1.22184 z m 11.59584,3.83377 c -2.11162,-1.14495 -2.1463,-3.38027 -0.14436,-9.31471 l 1.48756,-4.40972 1.67369,-0.10752 c 0.92053,-0.0591 1.67368,0.0337 1.67368,0.20632 0,0.47368 -1.38109,4.75911 -1.74209,5.4056 -0.55767,0.99866 -0.7905,3.6379 -0.40918,4.63796 0.36777,0.96454 0.38932,0.97014 3.73002,0.97014 h 3.36014 v 0.90514 c 0,2.09523 -0.36555,2.27116 -4.68672,2.25574 -2.84417,-0.0102 -4.23362,-0.16447 -4.94274,-0.54895 z m 17.0379,-0.22366 c -0.94097,-1.01 -1.18347,-2.02132 -0.98355,-4.10188 0.32964,-3.43051 3.35725,-7.92338 6.11611,-9.07612 0.75854,-0.31693 2.47678,-0.49916 4.70673,-0.49916 3.26361,0 3.58881,0.0646 4.59743,0.9133 1.00489,0.84556 1.08539,1.08165 1.08539,3.18275 0,3.92292 -2.76927,8.58639 -5.8675,9.88091 -0.75117,0.31385 -2.54385,0.48693 -5.04352,0.48693 -3.55724,0 -3.9388,-0.0651 -4.61109,-0.78673 z m 9.66142,-3.46356 c 1.46455,-1.74054 2.03238,-3.26808 1.91293,-5.14603 l -0.10918,-1.71617 -2.54681,-0.10343 c -3.14918,-0.1279 -3.97499,0.33829 -5.20499,2.93828 -0.95606,2.02092 -1.15333,3.99389 -0.46792,4.67931 0.251,0.25099 1.45902,0.42334 2.96725,0.42334 2.40241,0 2.59425,-0.0598 3.44872,-1.0753 z m 11.46337,4.03109 c -0.31401,-0.0921 -0.85178,-0.68898 -1.19507,-1.32643 -1.77341,-3.29299 1.40106,-10.35082 5.53865,-12.31424 0.97638,-0.46331 2.23516,-0.60401 5.40395,-0.60401 h 4.1311 l -0.24769,1.32023 c -0.1362,0.72613 -0.32201,1.4405 -0.41285,1.5875 -0.0908,0.147 -1.88969,0.26727 -3.99743,0.26727 h -3.83226 l -1.20555,1.40844 c -1.75909,2.0551 -2.58551,5.29768 -1.60108,6.28211 0.6906,0.69061 3.95273,0.53458 4.63726,-0.2218 0.87443,-0.96622 0.74401,-1.82431 -0.27728,-1.82431 -1.14755,0 -1.2761,-0.30347 -0.7885,-1.86138 l 0.41117,-1.31362 h 2.01034 c 1.67749,0 2.10125,0.12981 2.55951,0.78406 0.30204,0.43122 0.54916,1.2267 0.54916,1.76773 0,1.52213 -1.37339,4.08622 -2.75276,5.13934 -1.14674,0.8755 -1.53239,0.95693 -4.80328,1.01423 -1.95604,0.0343 -3.81338,-0.013 -4.12739,-0.10511 z m 15.13156,0.0219 c -0.10848,-0.10849 0.86409,-3.32318 2.16125,-7.14375 l 2.35853,-6.9465 1.35421,-0.11226 c 0.74482,-0.0617 1.50224,0.0358 1.68318,0.21673 0.20348,0.20346 -0.4317,2.5345 -1.66469,6.10948 -1.09651,3.17927 -2.08217,6.098 -2.19033,6.48605 -0.34036,1.22135 -0.84684,1.5875 -2.19579,1.5875 -0.72002,0 -1.39789,-0.0888 -1.50636,-0.19725 z m 10.81994,-0.52977 c -0.9011,-0.99572 -0.76507,-3.18289 0.31302,-5.03277 0.47187,-0.80968 0.96795,-2.28386 1.10239,-3.27596 0.2909,-2.1466 1.75193,-4.12791 3.61922,-4.90812 1.42882,-0.597 9.79547,-0.74773 10.14465,-0.18277 0.11466,0.18549 -0.0265,0.89986 -0.31397,1.5875 l -0.52236,1.25025 h -4.23894 c -3.931,0 -4.26741,0.0533 -4.63127,0.73313 -0.80433,1.50291 -0.28501,1.73632 3.86341,1.73632 2.12895,0 3.94304,0.11906 4.0313,0.26458 0.0883,0.14552 -0.0781,0.8599 -0.36967,1.5875 l -0.53019,1.32292 h -4.17562 c -3.85124,0 -4.21619,0.058 -4.69816,0.74605 -1.00111,1.42932 -0.4464,1.69358 3.77921,1.80035 l 3.9353,0.0994 -0.11472,1.05414 c -0.20235,1.85943 -0.45138,1.94447 -5.69464,1.94447 -4.44063,0 -4.89543,-0.0601 -5.49896,-0.72703 z m 17.05754,0.53781 c -0.10407,-0.10406 0.0131,-0.77875 0.26056,-1.4993 l 0.44976,-1.3101 4.17858,-0.0954 c 4.37357,-0.0998 5.06049,-0.35466 5.06049,-1.87721 0,-0.51442 -0.46115,-0.62115 -3.13848,-0.72632 -2.47403,-0.0972 -3.29555,-0.26557 -3.88056,-0.79534 -1.25292,-1.13467 -0.80888,-4.16528 0.8889,-6.06672 1.42307,-1.59378 2.64646,-1.9043 7.50291,-1.9043 2.52056,0 4.65504,0.11907 4.74331,0.26459 0.0883,0.14552 -0.0781,0.85989 -0.36968,1.5875 l -0.53019,1.32291 h -4.1524 c -4.36905,0 -5.14791,0.26468 -4.88132,1.65875 0.10439,0.54586 0.56349,0.64741 3.29233,0.72822 2.71985,0.0806 3.25886,0.19904 3.78838,0.83283 1.54382,1.8478 -0.12499,6.08742 -2.98108,7.57344 -0.67412,0.35074 -2.28141,0.49565 -5.49748,0.49565 -2.49964,0 -4.62996,-0.0851 -4.73403,-0.18921 z m 17.60566,-0.0587 c -0.0919,-0.1547 0.0759,-1.03533 0.37303,-1.95696 l 0.54017,-1.67569 h 2.2799 2.27989 l -0.24077,0.97014 c -0.59845,2.41116 -0.9399,2.72684 -3.07086,2.8389 -1.09685,0.0577 -2.06946,-0.0217 -2.16136,-0.17639 z m -607.0257,-23.61658 c -0.48507,-0.10351 -1.39805,-0.57893 -2.02884,-1.05648 -3.65064,-2.76375 -2.6647,-8.15311 1.7303,-9.45828 1.65199,-0.49059 31.9489,-0.54574 299.7924,-0.54574 280.47301,0 298.00589,0.0354 298.82694,0.60292 1.98529,1.37229 2.45975,2.30606 2.45975,4.84092 0,1.74241 -0.13667,2.11372 -1.21878,3.3115 -0.88611,0.98083 -1.68053,1.45604 -2.91042,1.74102 -1.23246,0.28558 -76.71777,0.39787 -278.093023,0.41367 -152.020761,0.0119 -285.688257,0.093 -297.038887,0.18019 -11.35062,0.0872 -21.03437,0.0738 -21.51944,-0.0297 z M 15.432675,91.646744 c 0,-45.373973 0.0333,-47.970816 0.617361,-48.140036 0.339549,-0.09838 2.006424,-0.594935 3.704167,-1.103457 l 3.086805,-0.924582 3.086806,0.924582 c 1.697743,0.508522 3.365186,1.005258 3.705429,1.103855 0.586292,0.169905 0.613947,2.680706 0.529167,48.044684 l -0.08946,47.86541 -7.320139,0.0954 -7.320139,0.0953 z M 124.44101,132.00703 c -4.08976,-0.80597 -6.01952,-1.69356 -9.3284,-4.29058 -2.64728,-2.07777 -4.82741,-4.92518 -6.84248,-8.93675 -3.52322,-7.01401 -4.96499,-15.97451 -3.92179,-24.373768 1.78029,-14.33406 7.91495,-23.76616 17.8025,-27.371602 1.61932,-0.590472 3.25092,-0.64213 20.28183,-0.64213 h 18.52084 v 6.702778 6.702778 l -16.05139,0.176389 c -14.45807,0.158881 -16.19099,0.239342 -17.4577,0.810588 -2.4455,1.102851 -4.45919,3.509254 -5.85643,6.998561 -1.33735,3.339653 -1.70752,5.60644 -1.72054,10.535427 -0.0205,7.816629 1.52873,13.029989 4.98751,16.782299 2.69691,2.92584 1.63632,2.76734 19.87077,2.96955 l 16.22778,0.17997 0.096,6.8535 c 0.0735,5.2471 -0.009,6.92027 -0.35278,7.13835 -0.77727,0.49331 -33.64074,0.27998 -36.25574,-0.23536 z m -66.924328,-0.1767 C 51.34759,130.92404 45.621859,125.27246 43.829229,118.32014 43.030632,115.22296 43.014288,83.211689 43.809756,80.150534 45.39371,74.054968 49.34746,69.357777 54.767411,67.132469 c 1.700216,-0.698073 2.524774,-0.728161 22.84236,-0.833564 11.59316,-0.06014 21.079919,0.01563 21.081683,0.168363 0.09627,8.334209 0.04512,12.79052 -0.15046,13.106947 -0.179,0.289645 -5.237127,0.39993 -18.342222,0.39993 H 62.103696 l -1.1987,0.796597 c -1.497887,0.995426 -2.788655,3.487149 -2.778449,5.36357 0.01016,1.867645 1.095773,4.205299 2.328065,5.013026 0.912216,0.59793 2.332972,0.657701 19.520534,0.821252 l 18.536708,0.176389 0.176389,6.650133 c 0.09701,3.657578 0.09017,6.788778 -0.01517,6.958218 -0.105375,0.16945 -8.621607,0.35189 -18.925011,0.40543 -21.201672,0.11015 -19.606231,-0.12091 -20.969424,3.037 -1.213454,2.81102 -0.682142,5.61021 1.450837,7.64366 l 1.110132,1.05834 18.681752,0.10009 18.681735,0.10009 -0.09564,6.95546 -0.0956,6.95547 -19.579166,0.0457 c -10.768541,0.0251 -20.405739,-0.0758 -21.415992,-0.2242 z M -25.706889,49.313127 c -2.770223,-1.258009 -4.143054,-4.241437 -3.5084,-7.624438 0.278525,-1.484666 2.748763,-4.183712 4.104393,-4.484565 1.391123,-0.308733 25.08569222,-6.246809 26.4324602,-6.624218 0.6790972,-0.190305 5.0383968,-1.299714 9.6873308,-2.465352 9.620581,-2.412192 12.974006,-2.730105 17.12378,-1.623384 1.26118,0.336348 2.84868,0.758606 3.527778,0.93835 0.679097,0.179743 9.861818,2.463969 20.406045,5.076056 20.833006,5.160899 20.857912,5.169796 22.283311,7.963839 1.794192,3.516919 -0.276296,8.071887 -4.159356,9.150315 -1.901225,0.528027 -1.88595,0.530196 -8.367501,-1.187941 C 61.434897,48.328923 56.513647,47.12068 50.886841,45.746801 35.790595,42.060809 23.805411,39.03551 23.464617,38.824888 c -0.251576,-0.155483 -3.205847,0.533054 -11.55972,2.694174 -3.1682933,0.819627 -10.2661151,2.600922 -12.1708328,3.054439 -1.1641666,0.277188 -2.6722916,0.654755 -3.3513888,0.839039 -5.2873733,1.434808 -18.7529714,4.573983 -19.5934894,4.567746 -0.574206,-0.0043 -1.697439,-0.304482 -2.496075,-0.667159 z"
         id="path13765" /><path
         style="fill:#ba1219;stroke-width:0.352778"
         d="m -109.23329,176.70156 c -0.17873,-0.28918 3.39076,-11.20036 3.79699,-11.60658 0.12044,-0.12044 0.21898,-0.58003 0.21898,-1.02131 0,-0.44128 0.15875,-0.90044 0.35277,-1.02035 0.19403,-0.11992 0.35278,-0.48117 0.35278,-0.80278 0,-0.32161 0.2597,-1.26474 0.5771,-2.09585 l 0.57709,-1.5111 h 5.518022 c 6.178144,0 6.70227,0.1623 7.620413,2.35973 1.472293,3.52369 -0.397267,9.46439 -4.14781,13.18006 -2.503279,2.48 -3.550186,2.78801 -9.506635,2.79691 -2.85045,0.004 -5.26232,-0.12117 -5.3597,-0.27873 z m 11.465,-4.85847 c 2.365887,-2.2463 3.762647,-7.178 2.473745,-8.73432 -0.596191,-0.71989 -4.358442,-0.83066 -4.878575,-0.14365 -0.18363,0.24254 -1.00467,2.4905 -1.82454,4.99548 -1.69717,5.18537 -1.6788,5.25742 1.28606,5.04463 1.464459,-0.1051 2.090234,-0.35218 2.94331,-1.16214 z m 11.98862,4.22721 c -1.468039,-1.86631 -1.295668,-4.76047 0.48895,-8.20953 1.111815,-2.14876 2.783854,-3.85929 4.56172,-4.66674 1.872735,-0.85054 7.486223,-0.93674 9.029538,-0.13866 2.823883,1.46029 1.876855,7.60919 -1.767861,11.47845 -2.022567,2.14717 -2.9661,2.45422 -7.541599,2.45422 -3.940704,0 -4.068142,-0.0245 -4.770748,-0.91774 z m 9.903608,-3.62911 c 1.436455,-1.6785 2.297677,-4.32392 1.836314,-5.64059 -0.303096,-0.86499 -0.4855,-0.93171 -2.808929,-1.02739 -2.098382,-0.0864 -2.633659,0.0148 -3.442113,0.65071 -1.760897,1.38512 -2.99557,4.80592 -2.348699,6.50732 0.31617,0.83159 0.484844,0.8818 2.962335,0.8818 2.615932,0 2.632054,-0.006 3.801092,-1.37185 z m 10.706361,3.70432 c -1.179043,-1.17904 -1.445084,-3.02276 -0.775705,-5.37578 0.990928,-3.48336 3.031363,-6.26488 5.531283,-7.54024 1.144789,-0.58403 2.079177,-0.70534 5.432757,-0.70534 2.227601,0 4.121711,0.11906 4.209136,0.26458 0.08743,0.14552 -0.02226,0.82021 -0.243762,1.49931 l -0.402721,1.23472 -3.933525,0.17639 c -3.244271,0.14548 -4.066212,0.29676 -4.690769,0.86333 -1.362245,1.23576 -2.533763,4.61648 -2.145792,6.19222 0.211797,0.86022 0.305858,0.88443 3.817923,0.98248 3.590826,0.10026 3.600774,0.10301 3.600774,0.99333 0,0.49104 -0.164334,1.19986 -0.365188,1.57516 -0.331177,0.61881 -0.776245,0.68237 -4.778537,0.68237 -4.182142,0 -4.457481,-0.0441 -5.255874,-0.84253 z m -156.111509,-44.1516 c 0,-0.57825 0.76928,-2.90163 7.23706,-21.85726 2.25092,-6.59695 4.94836,-14.534449 5.99432,-17.638893 1.04596,-3.104445 3.7449,-11.041945 5.99764,-17.63889 2.25274,-6.596944 4.79431,-14.058195 5.64793,-16.580556 2.01565,-5.956039 2.76285,-8.013555 3.10675,-8.554861 0.43821,-0.689748 43.25941,-0.619429 46.54317,0.07643 5.32945,1.129358 9.40114,4.308866 11.71257,9.146127 4.45412,9.321402 3.72989,20.774605 -2.33353,36.903136 -1.13106,3.008588 -5.04325,10.372687 -7.34372,13.823417 -6.8611,10.29176 -16.37222,18.29702 -25.09985,21.12589 -5.20326,1.68653 -6.1013,1.73959 -29.44476,1.73959 -19.60505,0 -22.01758,-0.0596 -22.01758,-0.54413 z m 46.77831,-18.28778 c 2.77868,-0.73992 4.98368,-2.19848 8.29775,-5.48882 3.28162,-3.25811 6.12569,-7.35412 8.22045,-11.838997 2.86528,-6.134563 3.60602,-8.428218 4.61413,-14.287501 0.6362,-3.697665 0.64197,-5.59283 0.0249,-8.174024 -0.91313,-3.819377 -2.77181,-5.978214 -5.74031,-6.667295 -0.73756,-0.17121 -5.73499,-0.31508 -11.1054,-0.319709 -8.41389,-0.0073 -9.84106,0.06826 -10.31875,0.545949 -0.30491,0.304898 -0.55437,0.851157 -0.55437,1.213901 0,0.362747 -0.15875,0.75765 -0.35278,0.877567 -0.19403,0.119916 -0.35278,0.528312 -0.35278,0.907552 0,0.379236 -0.15379,0.965179 -0.34176,1.302096 -0.18797,0.336917 -1.13466,2.993824 -2.10376,5.904241 -0.96909,2.910416 -3.60139,10.689167 -5.84955,17.286111 -5.60722,16.453669 -6.16883,18.158759 -6.16883,18.729039 0,0.71072 19.0666,0.7194 21.73109,0.01 z m 46.66685,18.29792 c -2.7242,-0.74679 -4.28662,-1.64576 -6.13266,-3.52856 -3.33132,-3.39765 -4.7625,-7.71332 -4.7625,-14.36111 0,-3.80724 0.52446,-7.7389 1.42473,-10.68051 2.73006,-8.920475 7.17671,-17.708815 11.57864,-22.883953 6.21178,-7.302902 12.05334,-11.539827 18.92302,-13.724992 2.39271,-0.761094 2.93534,-0.785502 17.462497,-0.785502 16.919338,0 17.420406,0.0635 20.853085,2.642767 7.080127,5.319904 8.402028,16.586783 3.635358,30.985021 -5.382701,16.259039 -17.141769,29.008689 -29.665369,32.164389 -2.538889,0.63974 -3.922091,0.69252 -17.224461,0.65724 -10.4665,-0.0278 -14.91395,-0.16175 -16.09234,-0.48479 z m 34.260394,-15.47432 c 3.827014,-2.00248 8.927553,-8.16756 11.418305,-13.80142 1.142672,-2.58462 1.231448,-2.810423 1.941833,-4.938886 1.127379,-3.377862 1.53997,-6.205023 1.396203,-9.567066 -0.15615,-3.651553 -0.831374,-5.346767 -2.696104,-6.768821 l -1.246025,-0.950225 h -11.316134 -11.316132 l -2.05273,1.186296 c -4.48004,2.589065 -8.4157,7.713847 -11.55137,15.041482 -1.81614,4.24406 -2.94931,11.10323 -2.37902,14.40035 0.5928,3.42723 1.79076,5.37372 3.81954,6.2061 0.54122,0.22206 4.90949,0.33001 11.45802,0.28316 l 10.583336,-0.0757 z m 40.216666,15.50634 c -5.429624,-1.50105 -9.2416,-5.77127 -10.574109,-11.84526 -0.48714,-2.22052 -0.31213,-11.08376 0.276345,-13.99539 0.637297,-3.15319 3.08652,-10.017961 4.986204,-13.975525 2.81075,-5.855554 6.283519,-10.765406 10.94444,-15.473412 6.104512,-6.166182 12.125628,-9.637022 18.25571,-10.523404 3.310047,-0.478617 35.971959,-0.473358 36.2681229,0.0059 0.2438083,0.394494 -3.8975276,12.984406 -4.4633479,13.568836 -0.2131483,0.220161 -6.534873,0.419085 -16.816758,0.529166 l -16.475219,0.176389 -1.917132,1.058334 c -3.869528,2.136136 -7.531244,6.382388 -10.343296,11.994444 -2.990691,5.96857 -4.518067,13.087372 -3.788209,17.656102 0.414165,2.59259 0.75311,3.43226 1.893415,4.69061 1.660571,1.83247 1.520292,1.81856 18.350215,1.81856 10.341155,0 15.771569,0.12339 15.918854,0.36171 0.197683,0.31985 -3.662546,12.25453 -4.47572,13.8376 -0.296093,0.57643 -1.514972,0.61527 -18.384565,0.58581 -13.236529,-0.0231 -18.49192,-0.14888 -19.65495,-0.47041 z m 221.76373,0.21859 c -0.17593,-0.28468 4.74472,-15.42908 5.49582,-16.91454 0.40061,-0.7923 0.41793,-0.79375 9.51395,-0.79375 8.0258,0 9.11261,0.0657 9.11261,0.55106 0,0.48683 -4.21552,13.30035 -5.3606,16.29408 l -0.43854,1.14653 h -9.07404 c -4.99075,0 -9.15289,-0.12752 -9.2492,-0.28338 z m 22.61266,0.0672 c -0.12615,-0.12614 -0.0504,-0.56567 0.16821,-0.97671 2.12414,-3.99333 33.41553,-50.88855 38.2796,-57.368207 3.29826,-4.393809 5.60151,-5.947791 11.23526,-7.580394 4.14296,-1.200573 9.41003,-1.243337 13.02364,-0.105735 3.04786,0.959496 5.60987,3.255293 6.0718,5.440913 0.55566,2.628911 0.15159,57.137693 -0.44492,60.019303 l -0.1657,0.80048 -7.84088,-0.0949 -7.84091,-0.0949 -0.0905,-25.84098 -0.0905,-25.840969 h -0.85535 c -1.09138,0 -0.17589,-1.322973 -32.46779,46.919449 l -3.18788,4.7625 -7.78238,0.0948 c -4.28032,0.0521 -7.88557,-0.008 -8.01173,-0.13458 z m 78.41527,-0.32465 c 0,-0.30534 0.87849,-3.12637 1.95217,-6.26896 1.07368,-3.1426 2.96975,-8.73006 4.2135,-12.41658 1.24376,-3.68653 4.1148,-12.10028 6.38013,-18.697226 2.26529,-6.596945 4.19661,-12.510383 4.29175,-13.140973 l 0.17297,-1.146528 h -6.92884 c -6.05426,0 -6.95642,-0.07195 -7.14756,-0.570032 -0.25738,-0.670698 3.62423,-12.374143 4.40331,-13.276496 0.49695,-0.575568 2.01072,-0.617361 22.36166,-0.617361 17.89003,0 21.86125,0.08507 22.00952,0.471448 0.27249,0.710103 -3.98286,13.043049 -4.67578,13.551469 -0.43293,0.317648 -2.55189,0.440972 -7.57672,0.440972 -6.51443,0 -6.99967,0.04473 -7.33774,0.676399 -0.32004,0.598032 -1.88859,5.13976 -6.71114,19.431938 -0.7529,2.23132 -3.21599,9.45444 -5.47356,16.05139 -2.25756,6.59694 -4.37853,12.86757 -4.71325,13.93472 l -0.60861,1.94028 -7.30592,0.0953 c -6.45139,0.0842 -7.30589,0.0304 -7.30589,-0.45981 z"
         id="path13763" /></g></g></svg>
