<?xml version="1.0" encoding="UTF-8" standalone="no"?>
<!-- Created with Inkscape (http://www.inkscape.org/) -->

<svg
   width="70mm"
   height="70mm"
   viewBox="0 0 70 70"
   version="1.1"
   id="svg5"
   sodipodi:docname="DocTec_quad.svg"
   xml:space="preserve"
   inkscape:version="1.2 (1:1.2.1+202207142221+cd75a1ee6d)"
   xmlns:inkscape="http://www.inkscape.org/namespaces/inkscape"
   xmlns:sodipodi="http://sodipodi.sourceforge.net/DTD/sodipodi-0.dtd"
   xmlns="http://www.w3.org/2000/svg"
   xmlns:svg="http://www.w3.org/2000/svg"><sodipodi:namedview
     id="namedview7"
     pagecolor="#ffffff"
     bordercolor="#666666"
     borderopacity="1.0"
     inkscape:showpageshadow="2"
     inkscape:pageopacity="0.0"
     inkscape:pagecheckerboard="0"
     inkscape:deskcolor="#d1d1d1"
     inkscape:document-units="mm"
     showgrid="false"
     inkscape:zoom="2.14"
     inkscape:cx="230.37383"
     inkscape:cy="124.76636"
     inkscape:window-width="1860"
     inkscape:window-height="979"
     inkscape:window-x="0"
     inkscape:window-y="0"
     inkscape:window-maximized="1"
     inkscape:current-layer="layer1" /><defs
     id="defs2" /><g
     inkscape:label="Ebene 1"
     inkscape:groupmode="layer"
     id="layer1"
     transform="translate(-149.4631,-237.86309)"><g
       id="g325"
       transform="matrix(0.99133444,0,0,1,82.259025,121.96459)"><path
         id="path329"
         style="fill:#656565;stroke-width:0.176389"
         d="m 115.09305,123.11305 c -1.08177,-0.005 -2.75057,0.3583 -10.14254,2.20814 -4.86605,1.21774 -9.145969,2.29248 -9.511045,2.38848 -0.365076,0.096 -0.939486,0.4168 -1.276408,0.71262 -1.510773,1.3265 -1.022492,3.80395 0.8816,4.47208 0.388056,0.13612 0.943509,0.21435 1.23455,0.17415 0.291042,-0.0402 4.617273,-1.10112 9.613363,-2.358 l 9.0842,-2.28513 9.17205,2.27376 c 5.04472,1.25058 9.52924,2.27593 9.9658,2.27893 2.59149,0.0178 3.6583,-3.44537 1.49759,-4.8612 -0.25281,-0.16565 -4.68155,-1.35838 -9.84178,-2.64996 -7.69668,-1.92659 -9.61534,-2.34887 -10.67738,-2.35387 z m -2.85048,7.22592 v 20.1967 20.1967 h 3.08664 3.08715 v -20.1967 -20.1967 h -3.08715 z m -12.277283,17.05322 c 1.8e-4,9.8e-4 7.37e-4,0.002 5.17e-4,0.003 -2.4e-4,7.5e-4 -2.87e-4,-0.001 -5.17e-4,-0.003 z m 3.044263,26.69398 c -30.848528,-0.002 -33.703871,0.0214 -34.151408,0.28577 -1.665555,0.98388 -1.307697,3.55683 0.56689,4.0752 0.267241,0.0739 15.495305,0.11464 33.839798,0.0915 26.35746,-0.0338 33.45053,-0.0893 33.81499,-0.26458 0.25367,-0.12201 0.6498,-0.49968 0.88005,-0.83923 0.68957,-1.0169 0.26711,-2.54692 -0.86352,-3.12797 -0.33206,-0.17069 -7.72157,-0.21866 -34.0868,-0.22066 z" /><path
         id="path327"
         style="fill:#b91219;stroke-width:0.176389"
         d="m 96.952034,136.54221 c -1.23666,-0.001 -2.764058,0.003 -4.665865,0.0129 l -9.039758,0.046 -2.895431,8.55452 c -1.592356,4.7051 -4.23584,12.51396 -5.874577,17.35243 -1.63873,4.83839 -2.979663,8.87091 -2.979663,8.96121 0,0.0999 3.768847,0.1385 9.657292,0.0987 10.932287,-0.0739 10.432219,-0.0167 13.537675,-1.54358 5.819653,-2.86142 10.852783,-9.71662 12.881383,-17.54518 0.7772,-2.9993 1.03793,-5.06424 0.90279,-7.14685 -0.31406,-4.83965 -2.3173,-7.70209 -5.9862,-8.55297 -0.73464,-0.17042 -1.82764,-0.2328 -5.537646,-0.23719 z m -8.647534,7.37888 h 4.523238 c 4.340595,0 4.555385,0.016 5.309237,0.39687 1.186359,0.59934 1.745282,1.5528 1.891875,3.33313 5e-5,5.1e-4 -1e-5,10e-4 0,0.002 8.8e-4,0.0107 0.002,0.0213 0.003,0.032 l 5.2e-4,5.1e-4 c 1.8e-4,7.3e-4 -4e-5,0.002 0,0.003 v 5.2e-4 c 1e-5,5.4e-4 2e-5,5.5e-4 0,0.002 9.3e-4,0.0118 0.002,0.0233 0.003,0.0351 3.7e-4,10e-4 8.1e-4,0.002 0.001,0.003 2.3e-4,0.001 3.9e-4,0.002 5.2e-4,0.003 -6e-5,9.9e-4 -3e-5,0.002 0,0.002 v 5.2e-4 c 2.9e-4,5.8e-4 3.2e-4,0.002 5.1e-4,0.002 1.1e-4,0 -4e-5,0.001 0,0.002 7e-5,0.002 1.1e-4,0.002 0,0.003 -1.2e-4,0.001 -2e-5,0.003 0,0.004 8e-5,0 3e-5,6.5e-4 0,10e-4 -2.1e-4,-2.8e-4 7e-5,0.001 0,0.001 1.2e-4,3.1e-4 4.3e-4,7e-4 5.2e-4,0.001 5.9e-4,0.002 4.8e-4,0.003 5.2e-4,0.005 -2.5e-4,0.002 -7e-5,0.004 0,0.006 2e-5,0.001 0,0.003 0,0.005 v 5.2e-4 c 0.001,0.019 0.003,0.0366 0.005,0.0558 0.0184,0.27887 0.0276,0.57637 0.0279,0.89607 0.002,2.78186 -1.261302,6.78949 -3.122286,9.90533 -1.138512,1.90625 -3.500772,4.3081 -4.902544,4.98523 l -1.058333,0.5116 -4.741313,0.0548 c -3.852764,0.0445 -4.725283,0.0111 -4.656563,-0.17673 0.04651,-0.12714 1.575999,-4.69584 3.399276,-10.15287 z m 11.660787,3.4711 c 1.8e-4,9.8e-4 7.37e-4,0.002 5.17e-4,0.003 -2.4e-4,7.5e-4 -2.87e-4,-0.001 -5.17e-4,-0.003 z m 33.370573,16.80724 -3.78943,0.047 -3.78892,0.0475 -1.19166,3.43959 c -0.65545,1.89169 -1.19647,3.53897 -1.20147,3.66024 -0.007,0.16979 0.85263,0.22029 3.73879,0.22014 h 3.7486 l 1.24179,-3.70727 z" /></g></g></svg>
